<svg width="24" height="24" viewBox="0 0 24 24" fill="none" xmlns="http://www.w3.org/2000/svg">
    <path id="discord" d="M12 24C18.6274 24 24 18.6274 24 12C24 5.37258 18.6274 0 12 0C5.37258 0 0 5.37258 0 12C0 18.6274 5.37258 24 12 24ZM14.2846 6.00003C15.4275 6.19498 16.5247 6.53239 17.538 6.99727C17.5533 6.99727 17.5609 7.00477 17.5685 7.01227C19.3743 9.62908 20.2657 12.5758 19.9305 15.9724C19.9305 15.9874 19.9228 16.0024 19.9076 16.0099C18.5361 16.9997 17.218 17.5995 15.9075 17.9969C15.8846 18.0044 15.8618 17.9969 15.8389 17.9894C15.5418 17.577 15.2675 17.1421 15.0237 16.6847C15.016 16.6622 15.0237 16.6248 15.0541 16.6173C15.4884 16.4523 15.9075 16.2648 16.3037 16.0324C16.3418 16.0174 16.3418 15.9724 16.3113 15.9499C16.2694 15.9162 16.2275 15.8843 16.1856 15.8524C16.1437 15.8206 16.1018 15.7887 16.0599 15.755C16.0446 15.74 16.0218 15.74 16.0065 15.7475C13.416 16.9247 10.5893 16.9247 7.96823 15.7475C7.953 15.74 7.93014 15.74 7.9149 15.755C7.87299 15.785 7.83109 15.8168 7.78918 15.8487C7.74728 15.8806 7.70537 15.9124 7.66346 15.9424C7.64061 15.9649 7.64061 16.0099 7.67108 16.0249C8.0749 16.2499 8.48634 16.4448 8.92064 16.6098C8.95112 16.6173 8.96636 16.6472 8.95112 16.6772C8.71492 17.1346 8.44063 17.5695 8.13586 17.9819C8.12824 17.9969 8.10538 18.0044 8.08252 17.9969C6.77963 17.5995 5.4615 16.9997 4.09003 16.0099C4.07479 16.0024 4.06717 15.9874 4.06717 15.9724C3.78526 13.0332 4.35671 10.064 6.42914 7.01227C6.43676 7.00477 6.44438 6.99727 6.452 6.99727C7.47298 6.53239 8.56254 6.19498 9.70542 6.00003C9.72828 6.00003 9.75114 6.00753 9.75876 6.02253C9.90353 6.26996 10.0635 6.58488 10.1702 6.83981C11.3824 6.65986 12.6152 6.65986 13.8274 6.83981C13.9341 6.59238 14.0941 6.26996 14.2313 6.02253C14.2379 6.01517 14.2462 6.00934 14.2554 6.00546C14.2646 6.00157 14.2746 5.99972 14.2846 6.00003ZM7.90728 12.5908C7.90728 13.4681 8.56254 14.1804 9.34732 14.1804C10.1473 14.1804 10.7874 13.4681 10.7874 12.5908C10.795 11.721 10.155 11.0012 9.34732 11.0012C8.5473 11.0012 7.90728 11.7135 7.90728 12.5908ZM13.2179 12.5908C13.2179 13.4681 13.8732 14.1804 14.6579 14.1804C15.4656 14.1804 16.098 13.4681 16.098 12.5908C16.1056 11.721 15.4656 11.0012 14.6579 11.0012C13.8579 11.0012 13.2179 11.7135 13.2179 12.5908Z" fill="#B9B9C3"/>
    <path id="youtube" d="M 12 0 C 5.3725932 0 0 5.3725932 0 12 C 0 18.627386 5.3725932 24 12 24 C 18.627386 24 24 18.627386 24 12 C 24 5.3725932 18.627386 0 12 0 z M 12 6.4003906 C 15.351994 6.4003906 17.439674 6.5279535 18.263672 6.7519531 C 18.98367 6.9519527 19.448439 7.4167202 19.648438 8.1367188 C 19.752437 8.5127181 19.823094 9.0162512 19.871094 9.65625 C 19.927094 10.296248 19.951172 10.848125 19.951172 11.328125 L 20 12 C 20 13.751996 19.872437 15.039283 19.648438 15.863281 C 19.448439 16.583281 18.98367 17.048047 18.263672 17.248047 C 17.887672 17.352047 17.200529 17.424656 16.144531 17.472656 C 15.104533 17.528656 14.151482 17.552734 13.271484 17.552734 L 12 17.599609 C 8.6480068 17.599609 6.5603265 17.472047 5.7363281 17.248047 C 5.0163295 17.048047 4.5515621 16.583281 4.3515625 15.863281 C 4.2475627 15.487283 4.1769062 14.983748 4.1289062 14.34375 C 4.0729063 13.703752 4.0488281 13.151875 4.0488281 12.671875 L 4 12 C 4 10.248004 4.1275629 8.9607171 4.3515625 8.1367188 C 4.5515621 7.4167202 5.0163295 6.9519527 5.7363281 6.7519531 C 6.1123273 6.6479533 6.7994709 6.5753437 7.8554688 6.5273438 C 8.8954667 6.4713438 9.848517 6.4472656 10.728516 6.4472656 L 12 6.4003906 z M 10.400391 9.5996094 L 10.400391 14.400391 L 14.552734 12 L 10.400391 9.5996094 z " fill="#B9B9C3"/>
    <path id="tiktok" d="M12 24C18.6274 24 24 18.6274 24 12C24 5.37258 18.6274 0 12 0C5.37258 0 0 5.37258 0 12C0 18.6274 5.37258 24 12 24ZM15.1607 4C15.1605 4.92216 15.4968 5.813 16.1071 6.50667C17.3214 7.90222 19 7.82222 19 7.82222V10.5689C17.6226 10.5712 16.2795 10.1421 15.1607 9.34222V14.9333C15.1607 17.7333 12.8839 20 10.0804 20C7.46429 20 5 17.8933 5 14.9333C5 11.8933 7.69643 9.51111 10.7768 9.92V12.7289C9.25 12.2578 7.76786 13.4044 7.76786 14.9333C7.76786 16.2133 8.82143 17.2444 10.0893 17.2444C10.6888 17.2444 11.2649 17.0127 11.6962 16.5982C12.1276 16.1837 12.3805 15.6187 12.4018 15.0222V4H15.1607Z" fill="#B9B9C3"/>
    <path id="modrinth" d="M12 24C18.6275 24 24 18.6274 24 12C24 5.37259 18.6275 0 12 0C5.37254 0 0 5.37259 0 12C0 18.6274 5.37254 24 12 24ZM8.83912 4.39725C9.89364 3.95633 11.0297 3.74402 12.1723 3.77427H12.1791C12.2478 3.78114 12.3094 3.78114 12.3162 3.79482C12.3368 3.82228 12.0352 5.76215 11.994 5.87871C11.9871 5.89244 11.7541 5.92672 11.4591 5.94731C10.1665 6.05558 8.94291 6.5756 7.96775 7.43094C6.99275 8.28629 6.31775 9.43188 6.04202 10.6993C5.91177 11.3713 5.90491 12.6673 6.02829 13.257C6.09007 13.5519 6.19286 13.8947 6.24777 13.9633C6.29565 14.0319 6.30251 14.0319 6.54944 13.8947C6.9745 13.6684 8.24314 12.9347 8.49693 12.777L8.72997 12.6193L8.70938 12.4136C8.70251 12.2902 8.60659 11.8787 8.49693 11.4947L8.30491 10.7884L8.50363 10.5484C8.77801 10.2124 10.2866 8.51187 10.3071 8.51187C10.314 8.51187 10.9242 8.35413 11.658 8.14842L12.9951 7.77815L13.9552 8.73817L13.3379 9.35529C13.002 9.69128 12.6454 10.0205 12.5563 10.0883C12.4329 10.1775 12.2615 10.246 11.9871 10.3146C11.7601 10.3728 11.6294 10.4063 11.5185 10.4728C11.3682 10.563 11.2544 10.7138 10.986 11.0689L10.6912 11.4598L10.7802 11.8712C10.8467 12.3283 11.0814 12.744 11.4385 13.0369L11.7951 13.3798L12.4329 13.3318L13.0706 13.2632L13.7975 12.5363L14.1266 12.4335C14.298 12.3649 14.7574 12.2483 15.1209 12.1592C15.6832 12.0152 15.7929 11.9946 15.8203 12.0357C15.8397 12.0698 15.9906 12.6115 16.0763 12.9452C16.1114 13.0818 16.1357 13.1836 16.1357 13.2015C16.1357 13.2101 15.9504 13.4042 15.6757 13.6841C15.5148 13.8479 15.3234 14.0412 15.1209 14.2438L14.1129 15.2517L11.2808 15.8414L10.5951 15.1763C10.4337 15.0236 10.2832 14.8805 10.1615 14.766C9.99358 14.6081 9.88025 14.5043 9.86836 14.5043C9.19386 14.8475 8.53493 15.2202 7.89342 15.6213C7.6192 15.7722 7.38599 15.9299 7.38599 15.9642C7.63142 16.3012 7.93292 16.5935 8.27746 16.8282C9.2923 17.6203 10.5414 18.0543 11.8294 18.0625L12.522 18.1036L12.7689 19.0431C13.0194 19.9823 13.0713 20.1512 13.0214 20.1904C13.0058 20.2027 12.98 20.2022 12.9472 20.2088C12.7962 20.2431 11.3563 20.2294 11.0546 20.195C9.82048 20.0379 8.63638 19.6098 7.58705 18.9413C6.53789 18.2728 5.64961 17.3805 4.98599 16.3283C4.71177 15.8963 4.34833 15.1146 4.18376 14.5942C3.88878 13.7233 3.77227 12.9827 3.77227 12.009C3.75419 10.7814 4.02673 9.56689 4.56763 8.46454C4.93644 7.67289 5.44001 6.95135 6.05575 6.33198C6.83605 5.4976 7.78477 4.83817 8.83912 4.39725ZM14.442 4.49427C14.4901 4.30225 14.5585 4.23369 14.6956 4.23369L14.6888 4.22683C14.8261 4.22683 15.7517 4.66569 16.2316 4.95368C17.2848 5.57875 18.1843 6.43154 18.8642 7.44944C19.5442 8.4673 19.9872 9.6244 20.1609 10.8357C20.25 11.398 20.25 12.6392 20.1609 13.1672C19.9575 14.5801 19.3915 15.9163 18.518 17.0458C17.6444 18.1754 16.493 19.0598 15.1758 19.6129L15.1346 19.5717C15.0934 19.4209 14.6751 17.7889 14.6546 17.6655C14.6448 17.5992 14.6396 17.5601 14.6446 17.5351C14.6501 17.5084 14.6672 17.4978 14.7025 17.4872C14.8123 17.4598 15.6077 16.9249 15.8684 16.7055C16.1357 16.486 16.5882 16.0335 16.8077 15.7592C17.398 14.9986 17.8103 14.1155 18.0146 13.1747C18.0832 12.8593 18.0832 12.7222 18.0832 11.9884C18.1252 11.3363 18.0318 10.6826 17.8088 10.0684C17.517 9.17038 17.0083 8.35806 16.3277 7.7034C15.75 7.10554 15.0509 6.63792 14.2775 6.33198C14.1951 6.2977 14.1266 6.24969 14.1266 6.22228C14.1266 6.15368 14.4008 4.65197 14.442 4.49427Z" fill="#B9B9C3"/>
    <path id="curseforge" d="M12 24C18.6275 24 24 18.6274 24 12C24 5.37259 18.6275 0 12 0C5.37254 0 0 5.37259 0 12C0 18.6274 5.37254 24 12 24ZM20.2286 8.22037C19.6979 9.76595 16.3378 10.296 16.3378 10.296C11.4795 11.9719 16.909 15.1728 16.909 15.1728L17.6146 17.4172H10.1232C11.2272 16.3056 12.6452 15.6096 14.0558 15.1639C10.3495 15.1015 8.32868 16.4071 7.26797 17.4172L7.94682 15.1728C7.94682 15.1728 11.9012 12.8407 10.0403 11.1154C8.68041 10.0848 5.16479 10.2672 5.16479 10.2672V8.61119L3.77143 6.99429H15.0809V8.22037H20.2286Z" fill="#B9B9C3"/>
</svg>