<svg width="24" height="24" viewBox="0 0 24 24" fill="none" xmlns="http://www.w3.org/2000/svg">
<path id="discord" d="M12 24C18.6274 24 24 18.6274 24 12C24 5.37258 18.6274 0 12 0C5.37258 0 0 5.37258 0 12C0 18.6274 5.37258 24 12 24ZM14.2846 6.00003C15.4275 6.19498 16.5247 6.53239 17.538 6.99727C17.5533 6.99727 17.5609 7.00477 17.5685 7.01227C19.3743 9.62908 20.2657 12.5758 19.9305 15.9724C19.9305 15.9874 19.9228 16.0024 19.9076 16.0099C18.5361 16.9997 17.218 17.5995 15.9075 17.9969C15.8846 18.0044 15.8618 17.9969 15.8389 17.9894C15.5418 17.577 15.2675 17.1421 15.0237 16.6847C15.016 16.6622 15.0237 16.6248 15.0541 16.6173C15.4884 16.4523 15.9075 16.2648 16.3037 16.0324C16.3418 16.0174 16.3418 15.9724 16.3113 15.9499C16.2694 15.9162 16.2275 15.8843 16.1856 15.8524C16.1437 15.8206 16.1018 15.7887 16.0599 15.755C16.0446 15.74 16.0218 15.74 16.0065 15.7475C13.416 16.9247 10.5893 16.9247 7.96823 15.7475C7.953 15.74 7.93014 15.74 7.9149 15.755C7.87299 15.785 7.83109 15.8168 7.78918 15.8487C7.74728 15.8806 7.70537 15.9124 7.66346 15.9424C7.64061 15.9649 7.64061 16.0099 7.67108 16.0249C8.0749 16.2499 8.48634 16.4448 8.92064 16.6098C8.95112 16.6173 8.96636 16.6472 8.95112 16.6772C8.71492 17.1346 8.44063 17.5695 8.13586 17.9819C8.12824 17.9969 8.10538 18.0044 8.08252 17.9969C6.77963 17.5995 5.4615 16.9997 4.09003 16.0099C4.07479 16.0024 4.06717 15.9874 4.06717 15.9724C3.78526 13.0332 4.35671 10.064 6.42914 7.01227C6.43676 7.00477 6.44438 6.99727 6.452 6.99727C7.47298 6.53239 8.56254 6.19498 9.70542 6.00003C9.72828 6.00003 9.75114 6.00753 9.75876 6.02253C9.90353 6.26996 10.0635 6.58488 10.1702 6.83981C11.3824 6.65986 12.6152 6.65986 13.8274 6.83981C13.9341 6.59238 14.0941 6.26996 14.2313 6.02253C14.2379 6.01517 14.2462 6.00934 14.2554 6.00546C14.2646 6.00157 14.2746 5.99972 14.2846 6.00003ZM7.90728 12.5908C7.90728 13.4681 8.56254 14.1804 9.34732 14.1804C10.1473 14.1804 10.7874 13.4681 10.7874 12.5908C10.795 11.721 10.155 11.0012 9.34732 11.0012C8.5473 11.0012 7.90728 11.7135 7.90728 12.5908ZM13.2179 12.5908C13.2179 13.4681 13.8732 14.1804 14.6579 14.1804C15.4656 14.1804 16.098 13.4681 16.098 12.5908C16.1056 11.721 15.4656 11.0012 14.6579 11.0012C13.8579 11.0012 13.2179 11.7135 13.2179 12.5908Z" fill="#B9B9C3"/>
<path id="youtube" fill-rule="evenodd" d="M12 24C18.6274 24 24 18.6274 24 12C24 5.37258 18.6274 0 12 0C5.37258 0 0 5.37258 0 12C0 18.6274 5.37258 24 12 24ZM14.552 12L10.4 14.3571V9.64286L14.552 12ZM19.872 9.69786C19.824 9.06929 19.752 8.57429 19.648 8.205C19.448 7.49786 18.984 7.04214 18.264 6.84571C17.44 6.62571 15.352 6.5 12 6.5L10.728 6.54714C9.848 6.54714 8.896 6.57071 7.856 6.62571C6.8 6.67286 6.112 6.74357 5.736 6.84571C5.016 7.04214 4.552 7.49786 4.352 8.205C4.128 9.01429 4 10.2793 4 12L4.048 12.66C4.048 13.1314 4.072 13.6736 4.128 14.3021C4.176 14.9307 4.248 15.4257 4.352 15.795C4.552 16.5021 5.016 16.9579 5.736 17.1543C6.56 17.3743 8.648 17.5 12 17.5L13.272 17.4529C14.152 17.4529 15.104 17.4293 16.144 17.3743C17.2 17.3271 17.888 17.2564 18.264 17.1543C18.984 16.9579 19.448 16.5021 19.648 15.795C19.872 14.9857 20 13.7207 20 12L19.952 11.34C19.952 10.8686 19.928 10.3264 19.872 9.69786Z" fill="#B9B9C3"/>
<path id="tiktok" d="M12 24C18.6274 24 24 18.6274 24 12C24 5.37258 18.6274 0 12 0C5.37258 0 0 5.37258 0 12C0 18.6274 5.37258 24 12 24ZM15.1607 4C15.1605 4.92216 15.4968 5.813 16.1071 6.50667C17.3214 7.90222 19 7.82222 19 7.82222V10.5689C17.6226 10.5712 16.2795 10.1421 15.1607 9.34222V14.9333C15.1607 17.7333 12.8839 20 10.0804 20C7.46429 20 5 17.8933 5 14.9333C5 11.8933 7.69643 9.51111 10.7768 9.92V12.7289C9.25 12.2578 7.76786 13.4044 7.76786 14.9333C7.76786 16.2133 8.82143 17.2444 10.0893 17.2444C10.6888 17.2444 11.2649 17.0127 11.6962 16.5982C12.1276 16.1837 12.3805 15.6187 12.4018 15.0222V4H15.1607Z" fill="#B9B9C3"/>
</svg>
