<svg width="24" height="24" viewBox="0 0 24 24" fill="none" xmlns="http://www.w3.org/2000/svg">
<path fill-rule="evenodd" clip-rule="evenodd" d="M12 24C18.6274 24 24 18.6274 24 12C24 5.37258 18.6274 0 12 0C5.37258 0 0 5.37258 0 12C0 18.6274 5.37258 24 12 24ZM15.1607 4C15.1605 4.92216 15.4968 5.813 16.1071 6.50667C17.3214 7.90222 19 7.82222 19 7.82222V10.5689C17.6226 10.5712 16.2795 10.1421 15.1607 9.34222V14.9333C15.1607 17.7333 12.8839 20 10.0804 20C7.46429 20 5 17.8933 5 14.9333C5 11.8933 7.69643 9.51111 10.7768 9.92V12.7289C9.25 12.2578 7.76786 13.4044 7.76786 14.9333C7.76786 16.2133 8.82143 17.2444 10.0893 17.2444C10.6888 17.2444 11.2649 17.0127 11.6962 16.5982C12.1276 16.1837 12.3805 15.6187 12.4018 15.0222V4H15.1607Z" fill="#B9B9C3"/>
</svg>
