<svg width="24" height="24" viewBox="0 0 24 24" fill="none" xmlns="http://www.w3.org/2000/svg">
<path fill-rule="evenodd" clip-rule="evenodd" d="M12 24C18.6274 24 24 18.6274 24 12C24 5.37258 18.6274 0 12 0C5.37258 0 0 5.37258 0 12C0 18.6274 5.37258 24 12 24ZM14.552 12L10.4 14.3571V9.64286L14.552 12ZM19.872 9.69786C19.824 9.06929 19.752 8.57429 19.648 8.205C19.448 7.49786 18.984 7.04214 18.264 6.84571C17.44 6.62571 15.352 6.5 12 6.5L10.728 6.54714C9.848 6.54714 8.896 6.57071 7.856 6.62571C6.8 6.67286 6.112 6.74357 5.736 6.84571C5.016 7.04214 4.552 7.49786 4.352 8.205C4.128 9.01429 4 10.2793 4 12L4.048 12.66C4.048 13.1314 4.072 13.6736 4.128 14.3021C4.176 14.9307 4.248 15.4257 4.352 15.795C4.552 16.5021 5.016 16.9579 5.736 17.1543C6.56 17.3743 8.648 17.5 12 17.5L13.272 17.4529C14.152 17.4529 15.104 17.4293 16.144 17.3743C17.2 17.3271 17.888 17.2564 18.264 17.1543C18.984 16.9579 19.448 16.5021 19.648 15.795C19.872 14.9857 20 13.7207 20 12L19.952 11.34C19.952 10.8686 19.928 10.3264 19.872 9.69786Z" fill="#B9B9C3"/>
</svg>
