<svg width="100" height="100" viewBox="0 0 100 100" xmlns="http://www.w3.org/2000/svg" >
    <path id="lieonlion-logo" fill="#5c27ce" d="m 48.160764,0.02519875 c -3.59505,0.10772 -7.82968,0.74729 -11.26988,1.71674005 -4.19423,1.17815 -7.85661,2.70639 -11.57958,4.82707 -1.97256,1.12429 -3.41328,2.08028 -5.62148,3.7431602 -3.63544,2.73332 -7.20357,6.40916 -10.0378701,10.34083 -4.6251,6.40916 -7.67483,13.85509 -8.87319002,21.64437 -0.77421,5.05597 -0.76748,10.48894 0.0337,15.48432 0.83480002,5.19061 2.36977002,10.00421 4.63856002,14.53505 1.43398,2.8747 2.78717,5.07617 4.6183601,7.54692 1.55517,2.10048 2.63907,3.36616 4.45679,5.21081 2.14761,2.1678 3.56139,3.41328 5.70227,5.00884 6.73231,5.01557 14.30616,8.18649 22.48591,9.3983 2.666,0.39721 4.38274,0.51839 7.23724,0.51839 2.43036,0 3.80375,-0.0673 5.65514,-0.28276 5.72246,-0.65976 11.14197,-2.24859 16.1912,-4.73954 3.05647,-1.50804 4.94825,-2.6458 7.54019,-4.53085 3.15745,-2.30245 6.32164,-5.25793 8.87991,-8.3144 1.5619,-1.86485 3.70951,-4.95498 4.92133,-7.07566 3.72969,-6.53034 5.85037,-13.34343 6.53706,-21.025 0.14138,-1.56863 0.16158,-6.05235 0.0337,-7.62771 -0.36354,-4.52411 -1.17141,-8.44231 -2.5852,-12.62308 -2.07355,-6.09947 -5.23774,-11.6065 -9.56661,-16.66247 -0.80115,-0.93579 -3.90474,-4.03938 -4.92132,-4.92131 -2.78718,-2.4169002 -5.95809,-4.5981702 -9.23673,-6.3485702 -3.05647,-1.62922 -6.18699,-2.90836 -9.60027,-3.90474 -4.99538,-1.46764005 -9.99075,-2.08028005 -15.63916,-1.91871005 z m 5.96483,6.75251005 c 3.23824,0.36354 5.61474,0.84154 8.32787,1.66288 7.20357,2.1812702 13.7743,6.2475802 18.88412,11.6738202 2.18127,2.32265 4.2279,5.01557 5.72247,7.54019 3.4806,5.87731 5.50703,12.29993 6.05234,19.15342 0.12119,1.49457 0.10099,5.35219 -0.0269,6.75924 -0.0606,0.61937 -0.12119,1.14449 -0.14139,1.16469 -0.0337,0.0404 -0.61263,0.0606 -5.25793,0.22217 -5.19061,0.18177 -11.19583,0.3972 -11.92292,0.42413 l -0.60591,0.0202 -0.0875,-3.17092 c -0.1885,-7.40554 -0.24236,-8.59716 -0.48472,-10.33409 -0.2289,-1.66289 -0.61264,-3.15073 -1.3532,-5.25121 -1.25221,-3.56139 -3.23151,-7.04872 -5.25793,-9.27712 -2.88816,-3.17092 -6.59093,-5.21081 -10.65725,-5.87731 -2.49095,-0.40393 -6.16006,-0.59917 -8.95397,-0.47126 -2.57174,0.11445 -4.19423,0.33662 -6.42262,0.88867 -2.72659,0.6665 -4.84053,1.5013 -6.90062,2.71985 -2.74005,1.62249 -4.75974,3.74317 -6.13313,6.44955 -1.65615,3.25844 -2.38324,6.01869 -3.28537,12.46824 -1.00312,7.19684 -1.11757,11.90946 -0.37701,16.22487 0.074,0.4376 0.12791,0.80114 0.12118,0.81461 -0.0135,0.007 -1.19835,0.35008 -2.6458,0.76075 -7.54018,2.14087 -9.75511,2.76025 -9.76858,2.74678 -0.0135,-0.0135 4.36254,-20.09594 4.51065,-20.68165 0.0539,-0.22217 0.68669,-3.05647 1.39359,-6.29471 l 1.29933,-5.89078 v -0.91559 l 0.007,-0.91559 -0.28276,-0.57225 c -0.75402,-1.50804 -2.43709,-2.21493 -4.00572,-1.67634 -1.01658,0.35008 -1.75714,1.13102 -2.10048,2.22166 -0.0875,0.28275 -0.74056,3.17765 -1.44745,6.43608 -0.70689,3.25844 -1.7706,8.1663 -2.3630401,10.90635 -0.59918,2.74005 -1.37339,6.3351 -1.73694,7.99125 -0.35681,1.66288 -0.67323,3.01607 -0.69342,3.01607 -0.0808,0 -0.46453,-2.76024 -0.60591,-4.40966 -0.0471,-0.52512 -0.0808,-2.01296 -0.0808,-3.36615 0,-2.05336 0.0202,-2.63234 0.14811,-3.80376 0.4376,-4.00572 1.01658,-6.75924 2.14088,-10.09846 1.1108301,-3.32576 2.8410301,-6.89389 4.7260801,-9.76185 1.83119,-2.79391 3.2719,-4.55105 5.75612,-7.042 3.23824,-3.24497 6.20719,-5.45317 10.17252,-7.58731 5.15022,-2.7669802 11.25642,-4.5308502 17.16739,-4.9617202 1.32627,-0.0942 6.03888,-0.0337 7.16991,0.0943 z m -0.84154,20.9172802 c 1.43398,0.0943 3.00934,0.29623 3.83742,0.49146 2.80064,0.67997 5.37911,2.51789 7.08912,5.07616 1.2724,1.89178 2.36304,4.1875 3.11033,6.51015 0.80114,2.51788 0.91559,3.62198 1.0839,10.36102 0.0471,2.0197 0.0606,3.93167 0.0269,5.11656 -0.0337,1.03677 -0.0606,2.3765 -0.0606,2.96895 0.003,0.77955 0.01,1.15705 0.24236,1.60229 0.4174,0.8752 1.38012,1.74366 2.30918,2.08028 0.59918,0.21543 1.24548,0.22217 6.76597,0.0269 2.71986,-0.0943 6.03888,-0.20197 7.37188,-0.24236 1.333,-0.0404 3.18438,-0.10099 4.10671,-0.13465 0.92906,-0.0337 1.87158,-0.0673 2.10048,-0.0673 h 0.41067 l -0.13464,0.48472 c -1.11084,4.02592 -3.15072,8.46925 -5.45317,11.92966 -1.87159,2.80064 -3.33923,4.59816 -5.60802,6.87368 -3.09013,3.1036 -6.31491,5.49357 -10.25331,7.60751 -5.23773,2.80065 -11.34394,4.55105 -17.28184,4.94825 -1.31953,0.0875 -4.74627,0.0875 -5.8975,0 -4.29521,-0.32988 -8.48271,-1.25894 -12.44804,-2.76024 -2.61887,-0.99639 -5.77632,-2.61887 -8.17976,-4.2077 -5.00883,-3.31903 -9.02129,-7.29782 -12.34032,-12.273 -0.84154,-1.25221 -1.78406,-2.8545 -1.71674,-2.91509 0.0337,-0.0269 3.44021,-1.00311 7.58058,-2.18127 4.1471,-1.17142 7.56712,-2.14087 7.61424,-2.16107 0.0404,-0.0135 0.2491,0.27603 0.47127,0.65977 0.99638,1.7504 2.22839,3.35942 3.79702,4.98191 3.4806,3.58159 7.22377,5.8773 11.63343,7.14971 2.75351,0.79441 5.8975,1.07717 8.61062,0.77422 4.88093,-0.53859 10.26678,-2.78045 14.57545,-6.05908 1.25895,-0.95599 2.18127,-1.85139 3.29884,-3.19112 1.00311,-1.21181 1.26567,-1.72347 1.32626,-2.65926 0.17504,-2.46403 -2.42363,-4.20769 -4.65876,-3.13726 -0.6059,0.28949 -0.90886,0.55878 -1.70327,1.51477 -0.35681,0.43087 -0.84827,0.97619 -1.0839,1.20509 -1.87159,1.84465 -5.87058,4.08651 -8.96071,5.01557 -1.86485,0.56551 -3.33922,0.79441 -5.01557,0.79441 -2.88816,-0.007 -5.30506,-0.59918 -7.93739,-1.94564 -0.83481,-0.42413 -2.42363,-1.46764 -3.2719,-2.1476 -0.73383,-0.58572 -2.28899,-2.10049 -2.96222,-2.88143 -0.59918,-0.7069 -1.41379,-1.78407 -1.41379,-1.89178 0,-0.0337 0.41741,-0.18177 0.92906,-0.31642 3.13726,-0.84827 7.80948,-2.22166 8.19996,-2.41017 1.24547,-0.61264 2.01296,-2.10048 1.79079,-3.44694 -0.11445,-0.65977 -0.47126,-1.38012 -0.92233,-1.82446 -0.41067,-0.4174 -1.12429,-0.80114 -1.69654,-0.92232 -0.80114,-0.16158 -1.18488,-0.0808 -5.37238,1.11083 -2.14761,0.61937 -4.22789,1.21181 -4.6251,1.333 -0.3972,0.12118 -0.74055,0.19523 -0.76748,0.1683 -0.14138,-0.14138 -0.35681,-2.21493 -0.40394,-4.01919 -0.0875,-3.00261 0.2491,-6.93427 1.02331,-11.94985 0.478,-3.11032 0.76748,-4.46352 1.27241,-5.99175 1.21181,-3.68931 2.73332,-5.51376 5.85711,-7.042 1.84465,-0.89539 4.49045,-1.63595 7.0016,-1.95237 1.40705,-0.17504 4.49718,-0.20197 6.73231,-0.0539 z" />
</svg>