<svg width="100" height="100" viewBox="0 0 100 100" xmlns="http://www.w3.org/2000/svg" >
    <circle id="background" fill="#100629" cx="50" cy="50" r="50" />
    <path id="lieonlion-outline" fill="none" stroke="#4f21b0" stroke-width="2.5" d="M 48.204352,1.5242294 C 44.703216,1.628718 40.579207,2.2491025 37.228876,3.1894713 33.144212,4.3322797 29.577505,5.8146762 25.951791,7.8717409 c -1.921031,1.0905639 -3.324115,2.017877 -5.47463,3.6308761 -3.540471,2.651326 -7.01539,6.216899 -9.775649,10.030629 -4.5042784,6.2169 -7.4743399,13.439471 -8.6413951,20.995092 -0.7539851,4.904303 -0.747431,10.174296 0.03282,15.019827 0.8129925,5.034904 2.3078643,9.704107 4.5173865,14.099033 1.3965199,2.788466 2.7143604,4.923897 4.4977136,7.320531 1.514544,2.037471 2.570129,3.265183 4.340364,5.054497 2.091508,2.102772 3.468357,3.310891 5.55331,4.858587 6.556441,4.865116 13.932438,7.940915 21.898508,9.116375 2.596356,0.385294 4.268249,0.502839 7.048181,0.502839 2.366871,0 3.704384,-0.06528 5.50741,-0.274278 5.572971,-0.639969 10.850907,-2.181138 15.768235,-4.597365 2.976626,-1.462803 4.818987,-2.566432 7.343217,-4.394935 3.074968,-2.233382 6.1565,-5.100205 8.64794,-8.064989 1.521098,-1.808908 3.612606,-4.806342 4.792769,-6.863406 3.632259,-6.334446 5.69754,-12.94316 6.366292,-20.394301 0.137686,-1.521576 0.157359,-5.870794 0.03283,-7.398898 C 98.053044,42.123458 97.266278,38.322795 95.889421,34.267438 93.870039,28.350938 90.788507,23.009105 86.57272,18.104802 85.792499,17.197083 82.769984,14.186594 81.77996,13.331119 79.065586,10.98672 75.97751,8.8708821 72.784518,7.1729899 69.807893,5.5926426 66.759152,4.3518737 63.435036,3.3853827 58.570151,1.9617683 53.705276,1.3675061 48.20442,1.5242294 Z m 5.80901,6.5499509 c 3.153647,0.3526348 5.468065,0.8162958 8.11032,1.612998 7.01539,2.1158377 13.414472,6.0601687 18.390808,11.3236347 2.124289,2.252976 4.117454,4.865114 5.572982,7.314002 3.389676,5.701005 5.363169,11.930962 5.894234,18.578863 0.118024,1.449737 0.09835,5.191638 -0.0262,6.556479 -0.05901,0.600791 -0.118024,1.110159 -0.137696,1.129753 -0.03281,0.03919 -0.596626,0.05878 -5.120577,0.215505 -5.055015,0.176318 -10.90336,0.385285 -11.611456,0.411407 l -0.590081,0.0196 -0.08521,-3.0758 C 74.226909,44.977227 74.174455,43.821352 73.938427,42.136526 73.715506,40.523519 73.341791,39.080311 72.620576,37.04284 71.401078,33.588283 69.473484,30.205564 67.5,28.044011 c -2.812713,-3.0758 -6.418755,-5.054499 -10.378849,-5.701005 -2.425879,-0.391813 -5.99914,-0.581196 -8.720066,-0.457123 -2.504557,0.111016 -4.084663,0.326522 -6.254841,0.862012 -2.655363,0.646507 -4.71408,1.456264 -6.720354,2.638261 -2.668471,1.573819 -4.635401,3.630884 -5.972914,6.256079 -1.612886,3.160695 -2.320982,5.838144 -3.199546,12.094223 -0.976914,6.980952 -1.088375,11.552205 -0.367161,15.738163 0.07206,0.424473 0.124569,0.777108 0.118014,0.790173 -0.01315,0.0068 -1.167045,0.339579 -2.576683,0.73793 -7.343207,2.076649 -9.500277,2.677448 -9.513394,2.664383 -0.01315,-0.0131 4.248577,-19.49311 4.392818,-20.061251 0.05249,-0.215505 0.668751,-2.964783 1.357185,-6.105883 l 1.265387,-5.714071 v -0.888124 l 0.0068,-0.888125 -0.275374,-0.555084 c -0.734322,-1.462803 -2.373425,-2.148487 -3.901078,-1.626054 -0.990023,0.339579 -1.711238,1.097093 -2.045608,2.155016 -0.08521,0.274268 -0.721215,3.082328 -1.409639,6.243013 -0.688423,3.160695 -1.724346,7.921331 -2.30131,10.579185 -0.583528,2.657856 -1.337512,6.145063 -1.6915652,7.751532 -0.347489,1.612998 -0.6556431,2.925596 -0.6753057,2.925596 -0.078689,0 -0.452395,-2.67744 -0.5900818,-4.277381 -0.045869,-0.509368 -0.078689,-1.952577 -0.078689,-3.265174 0,-1.991764 0.019673,-2.553376 0.1442409,-3.689657 0.4261685,-3.885558 0.9900237,-6.556479 2.0849528,-9.79553 1.081812,-3.225995 2.766814,-6.68709 4.60262,-9.469017 1.783354,-2.710101 3.186428,-4.41453 5.605753,-6.830758 3.153647,-3.147628 6.045039,-5.289588 9.906782,-7.359709 5.01568,-2.683978 10.962367,-4.3949362 16.718924,-4.8128811 1.291624,-0.091375 5.881126,-0.032689 6.98261,0.091472 z M 53.193806,28.363993 c 1.396519,0.09147 2.930726,0.287344 3.737174,0.476717 2.727479,0.659573 5.238591,2.44236 6.903931,4.923889 1.239161,1.83503 2.301309,4.061884 3.029078,6.31486 0.780212,2.44235 0.891671,3.51333 1.055585,10.050214 0.04587,1.959115 0.05901,3.81373 0.0262,4.963076 -0.03283,1.00567 -0.05901,2.305211 -0.05901,2.879888 0.0029,0.756166 0.0097,1.122342 0.23603,1.554225 0.406495,0.848947 1.344067,1.691356 2.248856,2.017877 0.583528,0.208968 1.212945,0.215505 6.589223,0.02609 2.648808,-0.09147 5.881125,-0.195912 7.179303,-0.23509 1.298178,-0.03919 3.101194,-0.09796 3.99943,-0.130611 0.90479,-0.03268 1.822688,-0.06528 2.045609,-0.06528 h 0.399942 l -0.131123,0.47018 c -1.081821,3.905152 -3.068413,8.215192 -5.310716,11.571798 -1.822699,2.716628 -3.251999,4.460226 -5.461521,6.667486 -3.009406,3.0105 -6.149945,5.328777 -9.985462,7.379303 -5.100904,2.716638 -11.047602,4.41453 -16.830385,4.799815 -1.285059,0.08487 -4.622282,0.08487 -5.743439,0 -4.183006,-0.319984 -8.261115,-1.221175 -12.122858,-2.67744 -2.550458,-0.9665 -5.625425,-2.540309 -7.96608,-4.081479 -4.877983,-3.219466 -8.785625,-7.078902 -12.017952,-11.90484 -0.819556,-1.214646 -1.737455,-2.768872 -1.671893,-2.827643 0.03281,-0.02609 3.35034,-0.97302 7.382551,-2.115838 4.038765,-1.13628 7.369443,-2.076648 7.415333,-2.096243 0.03935,-0.0131 0.242592,0.26775 0.458959,0.639979 0.970351,1.697892 2.170177,3.258645 3.69783,4.832464 3.389675,3.474151 7.035063,5.700995 11.329529,6.935236 2.681579,0.77058 5.743439,1.044857 8.385683,0.750995 4.753425,-0.522433 9.99858,-2.697043 14.194694,-5.877322 1.226062,-0.927312 2.124289,-1.795853 3.212664,-3.095394 0.976905,-1.175459 1.232607,-1.67177 1.291615,-2.579488 0.170467,-2.390115 -2.360318,-4.08147 -4.53706,-3.04315 -0.590072,0.280806 -0.885118,0.542018 -1.658775,1.469331 -0.347489,0.417945 -0.826111,0.946906 -1.055585,1.16894 -1.822698,1.789314 -5.717222,3.963925 -8.726628,4.865115 -1.816135,0.548546 -3.25199,0.77058 -4.884548,0.77058 -2.812712,-0.0068 -5.166475,-0.581206 -7.730041,-1.887277 -0.813002,-0.411407 -2.360317,-1.423614 -3.186428,-2.083177 -0.71466,-0.568149 -2.229194,-2.03748 -2.884837,-2.794994 -0.583528,-0.685694 -1.376858,-1.730551 -1.376858,-1.835031 0,-0.03268 0.406506,-0.176317 0.90479,-0.306927 3.055305,-0.822824 7.605472,-2.155017 7.985751,-2.337871 1.212935,-0.594263 1.960376,-2.037471 1.74401,-3.34354 -0.111461,-0.639979 -0.45895,-1.33872 -0.898236,-1.769731 -0.399942,-0.404879 -1.09492,-0.777107 -1.652221,-0.894653 -0.780212,-0.156732 -1.153927,-0.07837 -5.232036,1.077508 -2.091509,0.60079 -4.117445,1.175459 -4.504279,1.293013 -0.386824,0.117545 -0.721204,0.189374 -0.747431,0.163252 -0.137687,-0.137139 -0.347489,-2.148488 -0.393387,-3.898624 -0.08521,-2.912539 0.242592,-6.726259 0.996577,-11.591383 0.465513,-3.017019 0.747431,-4.329626 1.239171,-5.812013 1.180153,-3.578639 2.661917,-5.34836 5.704104,-6.830756 1.796462,-0.86853 4.373146,-1.586876 6.818697,-1.893804 1.370293,-0.169789 4.379699,-0.195911 6.556441,-0.05228 z" />
</svg>