<svg width="100" height="100" viewBox="0 0 100 100" xmlns="http://www.w3.org/2000/svg">
   <circle id="background" fill="#100629" cx="50" cy="50" r="50" />
   <path id="lieonlion-logo" fill="#5c27ce" d="M 50.000002,0 C 22.445099,0 2.1e-6,22.445097 2.1e-6,50 c 0,27.554908 22.4450969,50 49.9999999,50 C 77.554908,100 100,77.554908 100,50 100,22.445097 77.554908,0 50.000002,0 Z m 0,10 c 22.150525,0 40,17.849475 40,40 0,5.310838 -1.034961,10.370401 -2.900391,15 H 73.000002 c -2.839441,4.327965 -6.859013,7.819407 -11.595703,10 H 81.251955 C 73.932117,84.149853 62.674386,90 50.000002,90 37.325184,90 26.065904,84.14843 18.746096,74.998047 l 31.15625,-0.01367 c 2.761417,1e-5 5.000006,-2.238579 5,-5 6e-6,-2.761421 -2.238583,-5.00001 -5,-5 L 19.431643,65 25.449221,30.869141 C 25.929131,28.149157 24.11271,25.555269 21.39258,25.076172 20.31867,24.887119 19.265531,25.058955 18.353518,25.5 25.659523,16.063227 37.095952,10 50.000002,10 Z m 0,15 c -13.747834,0 -25,11.25216 -25,25 0,4.543825 1.234781,8.81172 3.376953,12.494141 l 13.269531,-0.0059 C 37.627358,59.810038 35.000002,55.239335 35.000002,50 c 0,-8.343483 6.656533,-15 15,-15 0.892238,0 1.763751,0.08039 2.611328,0.226562 l 1.150391,-6.527343 c 0.229593,-1.303862 0.733091,-2.338738 1.359375,-3.166016 C 53.466572,25.185092 51.753953,25 50.000002,25 Z m 6.224609,4.132812 -5.880859,33.351563 c 5.959014,-0.154524 10.752,-4.270042 11.894531,-9.884766 h 0.002 l 3.832032,-21.730468 c 0.479912,-2.719992 -1.336505,-5.313874 -4.056641,-5.792969 -2.510217,-0.44582 -5.279993,1.154533 -5.791016,4.05664 z M 15.498049,29.71875 10.654299,57.197266 C 10.232628,54.862131 10.000002,52.459768 10.000002,50 c 0,-7.413107 2.007501,-14.339481 5.498047,-20.28125 z m 52.744141,3.242188 c -1.194965,6.710256 -2.342054,13.428495 -3.546875,20.136718 -1.204596,5.919734 -5.653967,9.745 -9.984375,11.15625 1.639369,1.380681 2.691411,3.441792 2.691406,5.730469 3e-6,1.579427 -0.503095,3.050899 -1.351563,4.265625 C 66.900742,71.525631 75.000002,61.66297 75.000002,50 c 0,-6.569724 -2.574257,-12.564773 -6.757812,-17.039062 z" />
</svg>